<svg width="167" height="40" viewBox="0 0 167 40" fill="none" xmlns="http://www.w3.org/2000/svg">
<path d="M50.8388 14.1622H53.6541V17.5056H50.8388V27.4784H46.3286V17.5056H43.8867V14.1622H46.3286V9.39014H50.8388V14.1622Z" fill="#3F3F4C"/>
<path d="M65.145 14.1622H69.7127V27.4784H65.145V25.9639C64.2717 27.1184 62.8899 27.7785 61.4392 27.7356C58.1355 27.7356 54.918 25.1352 54.918 20.7918C54.918 16.4769 58.1355 13.8193 61.4392 13.8193C62.7894 13.8193 64.3119 14.4194 65.145 15.591V14.1622ZM62.3584 23.5922C63.8983 23.5922 65.145 22.352 65.145 20.8203C65.145 19.2887 63.8983 18.0485 62.3584 18.0485C60.8186 18.0485 59.5719 19.2887 59.5719 20.8203C59.5833 22.3463 60.8244 23.5807 62.3584 23.5922Z" fill="#3F3F4C"/>
<path d="M77.7279 27.4812H73.1602V14.165H77.498V17.4512C78.1875 14.9366 79.9974 13.8221 81.721 13.8221C82.4019 13.7964 83.0798 13.9221 83.7032 14.1936L82.5829 18.4799C81.9221 18.237 81.2183 18.1199 80.5145 18.137C78.7908 18.137 77.7279 19.1086 77.7279 23.1092V27.4812Z" fill="#3F3F4C"/>
<path d="M92.2548 14.162H95.0702V17.5054H92.2548V27.4782H87.7446V17.5054H85.3027V14.162H87.7446V9.0813H92.2548V14.162Z" fill="#3F3F4C"/>
<path d="M106.561 14.1622H111.129V27.4784H106.561V25.9639C105.688 27.1184 104.306 27.7785 102.855 27.7356C99.5515 27.7356 96.334 25.1352 96.334 20.7918C96.334 16.4769 99.5515 13.8193 102.855 13.8193C104.205 13.8193 105.728 14.4194 106.561 15.591V14.1622ZM103.774 23.5922C105.314 23.5922 106.561 22.352 106.561 20.8203C106.561 19.2887 105.314 18.0485 103.774 18.0485C102.235 18.0485 100.988 19.2887 100.988 20.8203C100.999 22.3463 102.24 23.5836 103.774 23.5922Z" fill="#3F3F4C"/>
<path d="M117.938 28.3384C118.368 29.3671 119.489 30.1101 120.897 30.1101C123.166 30.1101 124.43 28.6813 124.43 25.8237C123.769 26.9382 122.39 27.7383 120.322 27.7383C117.018 27.7383 113.801 25.1379 113.801 20.7944C113.801 16.4795 117.018 13.822 120.322 13.822C121.672 13.822 123.195 14.4221 124.028 15.5937V14.1649H128.596V25.7952C128.596 31.3674 125.838 34.2535 120.897 34.2535C117.736 34.2535 115.094 32.4247 114.088 29.8815L117.938 28.3384ZM121.241 23.5948C122.781 23.5948 124.028 22.3547 124.028 20.823C124.028 19.2914 122.781 18.0512 121.241 18.0512C119.701 18.0512 118.455 19.2914 118.455 20.823C118.466 22.349 119.707 23.5834 121.241 23.5948Z" fill="#3F3F4C"/>
<path d="M132.043 7.16113H136.611V27.4783H132.043V7.16113Z" fill="#333333"/>
<path d="M142.328 7.16113C143.851 7.16113 145.057 8.27558 145.057 9.73293C145.037 11.1903 143.836 12.3533 142.371 12.3333C142.357 12.3333 142.343 12.3333 142.328 12.3333C140.846 12.3676 139.613 11.2074 139.57 9.73293C139.57 8.27558 140.834 7.16113 142.328 7.16113ZM140.059 14.1621H144.626V27.4783H140.059V14.1621Z" fill="#E83D5B"/>
<path d="M157.526 14.1622H162.094V27.4784H157.526V25.9639C156.653 27.1184 155.271 27.7785 153.82 27.7356C150.516 27.7356 147.299 25.1352 147.299 20.7918C147.299 16.4769 150.516 13.8193 153.82 13.8193C155.17 13.8193 156.693 14.4194 157.526 15.591V14.1622ZM154.739 23.5922C156.279 23.5922 157.526 22.352 157.526 20.8203C157.526 19.2887 156.279 18.0485 154.739 18.0485C153.2 18.0485 151.953 19.2887 151.953 20.8203C151.964 22.3463 153.205 23.5836 154.739 23.5922Z" fill="#E83D5B"/>
<path d="M6.01503 14.8337C6.41721 14.8337 6.76769 14.6165 6.96304 14.2993H14.3173C14.5127 14.6193 14.8632 14.8337 15.2654 14.8337C15.8801 14.8337 16.38 14.3393 16.38 13.7249C16.38 13.322 16.1617 12.9763 15.8399 12.7819V5.53805C16.1617 5.34374 16.38 4.99512 16.38 4.59506C16.38 3.98354 15.883 3.48633 15.2654 3.48633C14.6506 3.48633 14.1507 3.98068 14.1507 4.59506C14.1507 4.99797 14.369 5.34374 14.6908 5.53805V12.7819C14.5385 12.8734 14.4093 13.002 14.3173 13.1534H6.96304C6.76769 12.8334 6.41721 12.6162 6.01503 12.6162C5.40025 12.6162 4.90039 13.1106 4.90039 13.7249C4.90039 14.3393 5.40025 14.8337 6.01503 14.8337Z" fill="#A7A7B7"/>
<path d="M36.731 24.8694C36.3288 24.8694 35.9783 25.0866 35.783 25.4037H28.4201C28.2247 25.0837 27.8742 24.8694 27.4721 24.8694C26.8573 24.8694 26.3574 25.3637 26.3574 25.9781C26.3574 26.3839 26.5786 26.7354 26.9061 26.9268V34.165C26.5844 34.3593 26.3689 34.7079 26.3689 35.108C26.3689 35.7195 26.8659 36.2167 27.4835 36.2167C28.1012 36.2167 28.5982 35.7224 28.5982 35.108C28.5982 34.7051 28.3799 34.3593 28.0581 34.165V26.9182C28.2075 26.8268 28.331 26.7011 28.4229 26.5496H35.7859C35.9812 26.8697 36.3317 27.0868 36.7339 27.0868C37.3486 27.0868 37.8485 26.5925 37.8485 25.9781C37.8485 25.3637 37.3458 24.8694 36.731 24.8694Z" fill="#A7A7B7"/>
<path d="M6.01503 20.9289C6.41721 20.9289 6.76769 20.7117 6.96304 20.3945H15.3228L21.3269 14.8794L27.2419 20.3945H27.4689H28.5462H35.7482C35.9436 20.7146 36.294 20.9289 36.6962 20.9289C37.311 20.9289 37.8109 20.4345 37.8109 19.8201C37.8109 19.2058 37.3139 18.7114 36.6962 18.7114C36.2912 18.7114 35.9436 18.9286 35.7482 19.2486H28.5462H27.6958L21.8727 13.8193H21.9043V5.54952C22.2261 5.35521 22.4444 5.00659 22.4444 4.60653C22.4444 3.99502 21.9474 3.4978 21.3298 3.4978C20.715 3.4978 20.2151 3.99216 20.2151 4.60653C20.2151 5.00945 20.4335 5.35521 20.7552 5.54952V13.8221H20.7839L14.8747 19.2515H6.96304C6.76769 18.9314 6.41721 18.7143 6.01503 18.7143C5.40025 18.7143 4.90039 19.2086 4.90039 19.823C4.90039 20.4374 5.40025 20.9289 6.01503 20.9289Z" fill="#E83D5B"/>
<path d="M26.3574 13.7249C26.3574 14.3364 26.8573 14.8337 27.4721 14.8337C27.8771 14.8337 28.2247 14.6165 28.4201 14.2993H35.783C35.9783 14.6193 36.3288 14.8337 36.731 14.8337C37.3458 14.8337 37.8456 14.3393 37.8456 13.7249C37.8456 13.1106 37.3486 12.6162 36.731 12.6162C36.3259 12.6162 35.9783 12.8334 35.783 13.1534H28.4201C28.3281 13.002 28.1989 12.8734 28.0466 12.7819V5.53805C28.3684 5.34374 28.5867 4.99512 28.5867 4.59506C28.5867 3.98354 28.0897 3.48633 27.4721 3.48633C26.8573 3.48633 26.3574 3.98068 26.3574 4.59506C26.3574 4.99797 26.5758 5.34374 26.8975 5.53805V12.7819C26.5729 12.9763 26.3574 13.3249 26.3574 13.7249Z" fill="#A7A7B7"/>
<path d="M16.3829 25.9781C16.3829 25.3666 15.8859 24.8694 15.2682 24.8694C14.8632 24.8694 14.5156 25.0866 14.3202 25.4037H6.96304C6.76769 25.0837 6.41721 24.8694 6.01503 24.8694C5.40025 24.8694 4.90039 25.3637 4.90039 25.9781C4.90039 26.5925 5.39738 27.0868 6.01503 27.0868C6.42009 27.0868 6.76769 26.8697 6.96304 26.5496H14.3202C14.4121 26.7011 14.5414 26.8297 14.6937 26.9211V34.165C14.3719 34.3593 14.1565 34.7079 14.1565 35.108C14.1565 35.7195 14.6535 36.2167 15.2711 36.2167C15.8887 36.2167 16.3857 35.7224 16.3857 35.108C16.3857 34.7051 16.1674 34.3593 15.8457 34.165V26.9211C16.1674 26.7268 16.3829 26.3782 16.3829 25.9781Z" fill="#A7A7B7"/>
<path d="M22.4422 19.8202C22.4422 19.2086 21.9452 18.7114 21.3275 18.7114C20.7128 18.7114 20.2129 19.2058 20.2129 19.8202C20.2129 20.2231 20.4312 20.5688 20.753 20.7631V34.2336C20.4312 34.428 20.2129 34.7766 20.2129 35.1766C20.2129 35.7882 20.7128 36.2854 21.3275 36.2854C21.9423 36.2854 22.4422 35.791 22.4422 35.1766C22.4422 34.7737 22.2267 34.428 21.905 34.2336V20.766C22.2267 20.5717 22.4422 20.2231 22.4422 19.8202Z" fill="#E83D5B"/>
</svg>
